<?xml version="1.0" standalone="no"?>
<!DOCTYPE svg PUBLIC "-//W3C//DTD SVG 20010904//EN"
 "http://www.w3.org/TR/2001/REC-SVG-20010904/DTD/svg10.dtd">
<svg version="1.0" xmlns="http://www.w3.org/2000/svg"
 width="720.000000pt" height="720.000000pt" viewBox="0 0 720.000000 720.000000"
 preserveAspectRatio="xMidYMid meet">
<metadata>
Created by potrace 1.14, written by Peter Selinger 2001-2017
</metadata>
<g transform="translate(0.000000,720.000000) scale(0.100000,-0.100000)"
fill="#000000" stroke="none">
<path d="M2420 5259 c-427 -55 -824 -273 -1092 -599 -296 -361 -434 -910 -344
-1372 62 -322 233 -637 476 -878 135 -134 264 -225 431 -304 613 -289 1262
-214 1789 205 179 142 322 321 435 547 67 133 130 311 112 317 -30 10 -615
165 -624 165 -5 0 -15 -19 -22 -42 -18 -62 -84 -199 -122 -255 -121 -179 -302
-315 -519 -391 -363 -126 -804 -10 -1057 280 -269 307 -332 700 -174 1080 114
272 373 490 679 569 134 35 273 36 462 3 l36 -6 85 319 85 318 -45 12 c-136
37 -429 53 -591 32z"/>
<path d="M4400 5260 c-176 -17 -357 -69 -534 -154 -352 -167 -606 -416 -781
-764 -67 -133 -130 -311 -112 -317 30 -10 615 -165 624 -165 5 0 15 19 22 43
19 61 84 198 122 254 156 229 413 391 688 433 251 38 569 -46 764 -204 173
-139 304 -344 360 -566 31 -127 29 -330 -6 -461 -70 -266 -200 -453 -416 -597
-235 -157 -466 -200 -782 -146 l-35 6 -85 -319 -85 -318 45 -12 c80 -22 268
-43 384 -43 393 0 751 128 1067 381 354 282 569 715 599 1204 23 382 -79 726
-319 1068 -88 126 -270 305 -396 390 -326 218 -742 324 -1124 287z"/>
</g>
</svg>
