<?xml version="1.0" standalone="no"?>
<!DOCTYPE svg PUBLIC "-//W3C//DTD SVG 20010904//EN"
 "http://www.w3.org/TR/2001/REC-SVG-20010904/DTD/svg10.dtd">
<svg version="1.0" xmlns="http://www.w3.org/2000/svg"
 width="200.000000pt" height="200.000000pt" viewBox="0 0 200.000000 200.000000"
 preserveAspectRatio="xMidYMid meet">
<metadata>
Created by potrace 1.14, written by Peter Selinger 2001-2017
</metadata>
<g transform="translate(0.000000,200.000000) scale(0.100000,-0.100000)"
fill="#000000" stroke="none">
<path d="M0 1975 c0 -27 1 -28 23 -19 18 7 10 44 -9 44 -8 0 -14 -10 -14 -25z"/>
<path d="M156 1953 c13 -90 42 -95 43 -8 0 52 -1 55 -25 55 -24 0 -25 -2 -18
-47z"/>
<path d="M400 1985 c0 -19 17 -19 50 0 l25 14 -37 1 c-27 0 -38 -4 -38 -15z"/>
<path d="M266 1962 c-13 -12 -5 -22 19 -22 14 0 25 4 25 9 0 10 -36 21 -44 13z"/>
<path d="M790 1950 c0 -17 7 -20 41 -20 24 0 38 -4 34 -10 -3 -5 -1 -10 5 -10
6 0 18 -7 26 -15 18 -18 18 -18 -24 -6 -49 14 -195 -10 -261 -43 -29 -15 -51
-30 -48 -32 3 -3 15 -1 26 6 13 7 21 7 21 1 0 -13 -30 -29 -89 -47 -40 -11
-111 -64 -87 -64 5 0 -2 -9 -15 -20 -19 -15 -21 -19 -7 -20 9 0 23 6 30 13 26
25 71 57 80 57 5 0 -12 -23 -39 -51 -26 -28 -54 -61 -61 -75 -7 -13 -16 -24
-20 -24 -11 0 -65 -71 -58 -77 3 -3 13 0 21 7 11 9 19 10 27 2 6 -6 17 -8 24
-5 18 7 18 0 -5 -48 -11 -22 -23 -53 -26 -69 -4 -17 -13 -30 -20 -30 -15 0
-75 -32 -75 -41 0 -3 6 -14 14 -24 10 -14 25 -18 61 -17 45 2 47 1 41 -20 -3
-13 -6 -31 -6 -40 0 -10 -5 -18 -11 -18 -6 0 -19 -10 -28 -21 -15 -18 -23 -20
-59 -14 -23 4 -40 11 -36 16 3 5 1 9 -4 9 -6 0 -7 14 -2 33 14 64 -11 133 -26
72 -3 -14 -19 -32 -35 -40 -16 -9 -33 -24 -39 -35 -9 -17 -7 -22 15 -32 30
-14 30 -14 5 -55 -17 -28 -25 -33 -59 -33 -22 0 -43 -4 -46 -10 -3 -5 -21 -17
-40 -26 l-35 -16 0 -103 c0 -110 9 -135 50 -135 27 0 35 -19 16 -38 -12 -13
-19 -13 -28 -4 -20 20 -38 14 -38 -13 0 -14 5 -25 12 -25 9 0 9 -3 0 -12 -9
-9 -12 -105 -12 -370 l0 -358 365 0 c339 0 366 1 371 18 12 36 36 83 40 79 2
-2 -3 -23 -11 -47 -8 -23 -15 -44 -15 -46 0 -2 281 -4 625 -4 l625 0 -1 193
c0 105 -3 186 -6 179 -4 -10 -9 -9 -24 4 -14 13 -16 20 -8 31 9 10 8 13 -5 13
-9 0 -16 4 -16 10 0 5 -13 7 -29 4 -36 -8 -138 43 -121 60 13 13 13 56 -1 56
-5 0 -15 14 -20 30 -7 19 -18 30 -29 30 -11 0 -21 4 -24 8 -9 15 -99 6 -111
-12 -8 -10 -19 -14 -30 -10 -15 6 -16 4 -6 -15 10 -17 8 -30 -9 -68 -27 -61
-50 -85 -131 -139 -114 -76 -152 -89 -254 -89 -109 1 -197 26 -305 87 -62 36
-81 52 -107 98 -18 30 -33 62 -33 72 0 18 41 64 76 84 19 12 19 12 -1 50 -11
21 -25 39 -32 41 -15 5 -27 -33 -24 -76 2 -40 -31 -81 -66 -81 -13 0 -23 -4
-23 -10 0 -5 -9 -14 -20 -20 -16 -8 -26 -6 -50 12 -26 19 -34 20 -50 10 -26
-16 -45 -15 -60 3 -20 24 33 95 71 95 38 0 59 9 59 26 0 14 -8 16 -75 16 -62
0 -66 -2 -65 -20 3 -23 -10 -62 -20 -62 -4 0 -10 -9 -13 -20 -4 -17 -9 -19
-29 -11 -13 5 -36 7 -51 4 -39 -8 -46 21 -13 52 14 13 26 29 26 34 0 13 55 42
64 34 3 -4 6 1 6 10 0 10 5 17 11 17 6 0 8 7 5 16 -4 9 -1 23 5 30 9 11 2 18
-37 35 -27 12 -56 28 -65 36 -20 17 -52 26 -102 27 -48 1 -71 27 -63 74 3 20
1 30 -5 26 -13 -7 -38 25 -39 49 0 27 53 23 65 -5 6 -14 21 -24 37 -26 16 -2
28 -9 28 -18 0 -8 5 -14 11 -14 6 0 8 -8 5 -18 -10 -32 15 -51 73 -56 39 -3
61 0 78 11 22 14 25 14 44 -3 16 -14 20 -28 17 -61 -3 -38 -1 -43 22 -48 14
-3 32 -15 41 -27 12 -15 30 -21 72 -24 l57 -5 0 30 c0 23 8 34 36 50 23 14 34
27 30 36 -11 28 129 -128 147 -164 22 -46 45 -63 77 -56 14 3 30 2 35 -3 14
-10 16 -45 2 -54 -9 -6 -8 -10 2 -17 8 -5 13 -26 13 -54 -1 -40 2 -46 26 -55
53 -20 92 -22 117 -6 25 16 26 26 7 62 -7 12 -12 30 -10 40 2 11 -3 16 -13 14
-23 -3 -30 20 -18 62 6 23 27 50 59 77 28 23 50 49 50 58 0 9 14 40 30 70 17
30 29 56 27 58 -2 1 -21 -22 -42 -52 -43 -63 -60 -70 -52 -22 6 41 -24 92 -59
101 -15 4 -36 0 -53 -10 -34 -20 -58 -13 -70 18 -7 17 -4 28 11 44 25 28 10
37 -27 18 -20 -10 -42 -12 -77 -8 -47 6 -49 8 -43 33 4 14 6 61 6 103 0 76 0
78 26 84 18 5 30 2 37 -8 31 -43 186 -92 174 -56 -3 7 17 34 44 60 42 41 48
51 42 75 -9 36 -2 31 -62 43 -34 6 -61 6 -78 0 -14 -6 -41 -10 -60 -10 -19 0
-34 -4 -34 -9 0 -20 -33 -21 -50 -1 -17 20 -57 29 -45 10 3 -5 1 -10 -4 -10
-6 0 -11 -9 -11 -19 0 -16 -8 -19 -52 -19 -29 -1 -64 -2 -78 -4 -35 -4 -42 38
-8 51 23 10 23 10 -4 10 -33 1 -59 38 -33 47 14 6 14 8 1 18 -22 16 -2 90 30
111 14 9 22 20 19 24 -7 12 52 32 71 24 8 -3 25 4 37 15 12 11 42 25 67 32 25
6 55 18 68 27 13 8 30 12 37 9 8 -3 17 -1 20 3 16 27 125 -16 143 -56 6 -16
21 -39 32 -51 11 -12 25 -32 31 -44 5 -13 16 -34 24 -48 8 -14 15 -36 15 -50
0 -14 4 -31 9 -39 7 -11 13 -7 27 15 10 16 29 38 42 50 24 20 25 24 20 120 -3
66 -11 112 -23 137 -10 21 -15 40 -12 43 3 3 -4 32 -14 63 -14 40 -28 62 -45
72 -21 11 -27 11 -33 0 -6 -9 -11 -10 -15 -2 -4 6 -16 11 -27 11 -10 0 -19 4
-19 8 0 14 -120 66 -147 64 -14 -1 -30 1 -37 5 -14 10 -31 13 -86 17 -30 3
-46 9 -48 20 -2 11 -9 13 -26 7 -14 -6 -30 -4 -46 5 -34 18 -40 17 -40 -6z
m-340 -377 c0 -5 -4 -15 -10 -23 -11 -18 -25 -7 -17 15 6 15 27 21 27 8z m-48
-35 c-7 -7 -12 -8 -12 -2 0 14 12 26 19 19 2 -3 -1 -11 -7 -17z m975 -70 c-3
-8 -6 -5 -6 6 -1 11 2 17 5 13 3 -3 4 -12 1 -19z m-963 -409 c7 -47 28 -48 37
-3 4 16 7 21 8 12 0 -9 15 -30 31 -46 37 -38 38 -53 1 -79 l-28 -22 -41 20
c-37 19 -40 23 -45 72 -2 29 -1 54 4 55 5 2 9 10 9 18 0 31 18 11 24 -27z
m106 -13 c0 -3 -4 -8 -10 -11 -5 -3 -10 -1 -10 4 0 6 5 11 10 11 6 0 10 -2 10
-4z m-400 -26 c0 -5 -2 -10 -4 -10 -3 0 -8 5 -11 10 -3 6 -1 10 4 10 6 0 11
-4 11 -10z m578 -115 c18 -39 15 -52 -20 -77 -48 -34 -63 -31 -66 10 -2 27 4
42 25 63 35 35 47 36 61 4z m412 -64 c0 -10 -50 -25 -58 -17 -3 3 6 10 19 15
31 13 39 13 39 2z m36 -19 c-8 -9 -19 -13 -22 -9 -10 9 16 38 28 31 6 -4 4
-13 -6 -22z m64 -63 c0 -5 -4 -7 -10 -4 -5 3 -10 1 -10 -4 0 -6 -6 -11 -14
-11 -7 0 -19 -7 -26 -14 -10 -13 -16 -13 -45 1 -19 9 -32 20 -29 25 8 12 62
10 66 -4 3 -8 11 -7 28 5 28 20 40 21 40 6z m-1046 -245 c20 -8 20 -28 0 -59
-19 -28 -64 -35 -64 -9 0 19 19 56 34 66 13 9 11 9 30 2z m367 -37 c-10 -9
-11 -8 -5 6 3 10 9 15 12 12 3 -3 0 -11 -7 -18z m-443 -77 c-5 -23 -32 -23
-46 1 -11 17 -11 23 -1 29 16 11 50 -11 47 -30z m287 -11 c-7 -11 -35 -12 -35
-1 0 4 9 8 20 9 11 1 18 -2 15 -8z"/>
<path d="M375 1829 c-4 -6 -5 -13 -2 -16 7 -7 27 6 27 18 0 12 -17 12 -25 -2z"/>
<path d="M80 1711 c0 -20 -6 -30 -20 -34 -32 -8 -25 -38 8 -35 55 4 78 -25 85
-109 1 -13 7 -23 12 -23 12 0 14 80 2 97 -4 7 -15 35 -23 63 -12 42 -36 70
-58 70 -3 0 -6 -13 -6 -29z"/>
<path d="M236 1695 c-3 -9 0 -15 9 -15 16 0 20 16 6 24 -5 3 -11 -1 -15 -9z"/>
<path d="M290 1669 c0 -5 5 -7 10 -4 6 3 10 8 10 11 0 2 -4 4 -10 4 -5 0 -10
-5 -10 -11z"/>
<path d="M45 1580 c-3 -5 -1 -10 4 -10 6 0 11 5 11 10 0 6 -2 10 -4 10 -3 0
-8 -4 -11 -10z"/>
<path d="M15 1570 c-3 -5 -1 -10 4 -10 6 0 11 5 11 10 0 6 -2 10 -4 10 -3 0
-8 -4 -11 -10z"/>
<path d="M110 1489 c0 -5 5 -7 10 -4 6 3 10 8 10 11 0 2 -4 4 -10 4 -5 0 -10
-5 -10 -11z"/>
<path d="M100 1454 c0 -8 5 -12 10 -9 6 3 10 10 10 16 0 5 -4 9 -10 9 -5 0
-10 -7 -10 -16z"/>
<path d="M940 1410 c-8 -5 -10 -10 -5 -10 6 0 17 5 25 10 8 5 11 10 5 10 -5 0
-17 -5 -25 -10z"/>
<path d="M75 1370 c-7 -12 2 -30 16 -30 12 0 12 27 0 35 -5 3 -12 1 -16 -5z"/>
<path d="M925 1359 c-22 -10 -55 -19 -72 -19 -18 0 -33 -4 -33 -10 0 -18 48
-10 122 20 44 18 63 29 48 29 -14 0 -43 -9 -65 -20z"/>
<path d="M1426 1372 c-2 -4 2 -15 9 -25 12 -16 13 -16 17 8 5 24 -14 36 -26
17z"/>
<path d="M0 1328 c0 -9 7 -19 16 -22 25 -10 27 -1 4 19 -17 15 -20 16 -20 3z"/>
<path d="M778 1333 c7 -3 16 -2 19 1 4 3 -2 6 -13 5 -11 0 -14 -3 -6 -6z"/>
<path d="M1381 1296 c-9 -10 -8 -16 4 -26 8 -7 15 -19 15 -27 0 -11 4 -11 20
-3 22 12 26 40 8 58 -16 16 -33 15 -47 -2z"/>
<path d="M1843 1290 c-6 -21 -6 -21 -41 -25 -12 -1 -24 -4 -25 -6 -1 -2 -12
-19 -25 -37 l-23 -33 37 3 c30 2 39 -1 42 -14 3 -14 -3 -18 -22 -18 -26 0 -35
-13 -16 -25 6 -3 15 -26 21 -50 10 -39 14 -43 38 -40 73 9 103 41 59 60 -26
11 -36 53 -16 66 7 5 23 7 35 4 17 -4 20 -1 16 16 -3 11 -9 16 -12 11 -3 -6
-22 -12 -41 -14 -34 -3 -35 -2 -32 27 2 17 10 35 18 41 16 13 19 54 3 54 -6 0
-13 -9 -16 -20z"/>
<path d="M0 1182 c0 -48 3 -62 15 -62 8 0 15 4 15 9 0 5 9 12 19 16 17 5 18 8
5 34 -8 15 -23 36 -34 46 -20 18 -20 18 -20 -43z"/>
<path d="M1100 1001 c0 -6 4 -13 10 -16 6 -3 7 1 4 9 -7 18 -14 21 -14 7z"/>
<path d="M1965 979 c-37 -23 -57 -24 -102 -3 -29 14 -38 15 -59 4 -33 -18 -30
-31 11 -58 20 -12 41 -34 47 -47 7 -16 19 -25 35 -25 13 0 32 -5 42 -12 10 -6
25 -9 33 -5 20 7 30 57 12 57 -8 0 -14 7 -14 15 0 8 7 15 15 15 11 0 15 11 15
40 0 22 -1 40 -2 39 -2 0 -16 -9 -33 -20z m-114 -52 c-8 -8 -11 -3 -11 19 1
25 2 27 11 11 8 -14 8 -22 0 -30z"/>
<path d="M1355 899 c-2 -8 1 -36 9 -64 11 -40 15 -46 21 -30 3 11 10 30 15 41
7 17 3 27 -15 44 -19 18 -26 20 -30 9z"/>
<path d="M1687 903 c-4 -3 -7 -20 -7 -36 0 -20 6 -30 19 -34 23 -6 33 -37 18
-52 -19 -19 -46 -12 -53 14 -5 20 -13 25 -36 25 -16 0 -39 5 -51 11 -16 9 -22
9 -25 0 -2 -6 -9 -11 -16 -11 -7 0 -21 -6 -32 -14 -18 -14 -18 -15 14 -29 l33
-13 -22 -28 c-12 -15 -20 -28 -18 -29 2 -1 14 -8 27 -15 28 -15 36 -11 52 28
7 17 22 33 34 36 34 8 93 -2 121 -20 25 -17 28 -17 46 0 13 12 19 30 19 61 0
46 -2 48 -29 34 -23 -13 -42 0 -43 30 -2 39 -31 63 -51 42z m-107 -147 c0 -3
-4 -8 -10 -11 -5 -3 -10 -1 -10 4 0 6 5 11 10 11 6 0 10 -2 10 -4z"/>
<path d="M760 816 c0 -2 7 -7 16 -10 8 -3 12 -2 9 4 -6 10 -25 14 -25 6z"/>
<path d="M852 700 c0 -19 2 -27 5 -17 2 9 2 25 0 35 -3 9 -5 1 -5 -18z"/>
<path d="M1838 686 c-30 -13 -68 -45 -68 -58 0 -4 10 -6 23 -4 12 3 45 8 74
10 28 3 58 9 67 12 25 10 19 24 -11 24 -14 0 -34 6 -42 14 -13 10 -22 11 -43
2z"/>
<path d="M1433 565 c0 -33 2 -45 4 -27 2 18 2 45 0 60 -2 15 -4 0 -4 -33z"/>
<path d="M827 535 c3 -44 7 -82 9 -84 8 -8 2 115 -6 139 -5 14 -6 -9 -3 -55z"/>
<path d="M967 593 c-9 -8 12 -33 28 -33 8 0 11 8 8 20 -5 20 -23 26 -36 13z"/>
<path d="M1421 444 c0 -11 3 -14 6 -6 3 7 2 16 -1 19 -3 4 -6 -2 -5 -13z"/>
</g>
</svg>
